<?xml version="1.0" encoding="UTF-8"?>
<svg id="Layer_2" xmlns="http://www.w3.org/2000/svg" viewBox="0 0 372.17 372.17">
  <g id="design">
    <g id="_x31_1">
      <g>
        <g>
          <circle cx="186.09" cy="186.09" r="178.59" transform="translate(-77.08 186.09) rotate(-45)" style="fill: #e8504c;"/>
          <path d="M186.09,372.17C83.48,372.17,0,288.7,0,186.09S83.48,0,186.09,0s186.09,83.48,186.09,186.09-83.48,186.09-186.09,186.09ZM186.09,15C91.75,15,15,91.75,15,186.09s76.75,171.09,171.09,171.09,171.09-76.75,171.09-171.09S280.43,15,186.09,15Z" style="fill: #231815;"/>
        </g>
        <g>
          <path d="M314.37,194.06c-6.91-2.95-17.02-2.82-23.96.03-6.93,2.85-11.15,5.72-16.07,8.1-3.93,1.9-6.67,3.73-9.05,5.23-4.46,2.82-10.39,6.91-17.01,12.54-.11-.02-.23-.03-.35-.05-.06-.11-.12-.22-.35-.05,0,0,0,0,0,0l-.74-32.66,18.77-110.76c1.16-7.68-7.25-16-14.92-17.16-7.68-1.16-17.62,3.66-18.78,11.34l-18.31,109.42-2.75-.34.23-117.66c0-7.77-8.63-14.04-16.4-14.04s-16.39,6.89-16.39,14.66l.84,114.84-1.81.23-18.33-107.41c-1.35-7.65-11.58-12.09-19.22-10.74h0c-7.65,1.35-15.52,9.22-14.17,16.87l19.76,109.9-7.61,2.9-32.38-70.21c-3.25-7.05-11.64-10.3-18.69-7.05-7.05,3.25-12.12,12.34-8.87,19.39l28.63,72.63v35.85c0,20.89,2.65,33.64,14.31,52.67,11.85,19.34,33.06,29.4,55.43,30.43,17.77.81,34.48-.31,50.44-8.95,22.83-12.37,32.12-35.86,46.94-55.37,7.21-9.49,14.5-19.4,24.84-25.44,5.13-3,10.85-4.93,15.95-7.98,5.1-3.05,9.76-7.6,10.8-13.4,1.32-7.32-3.84-14.78-10.75-17.73Z" style="fill: #efc69a;"/>
          <path d="M185.06,329.01c-3.14,0-6.2-.09-9.18-.23-26.02-1.19-47.95-13.3-60.15-33.21-12.82-20.93-15.17-35.19-15.17-55.72v-34.74l-28.16-71.46c-2.16-4.83-1.9-10.64.71-15.98,2.37-4.84,6.41-8.85,11.11-11.01,9.95-4.59,21.82-.14,26.45,9.92l26.53,57.52-17.38-96.62c-.94-5.31.92-11.03,5.1-15.72,3.7-4.15,8.73-7.04,13.81-7.94,10.65-1.88,24.03,4.34,26,15.48l8.08,47.38-.39-53.98c0-11.59,11.95-20.55,22.24-20.55s22.25,8.51,22.25,19.89l-.13,63.42,9.34-55.8c.79-5.23,4.39-10.04,9.85-13.12,4.81-2.71,10.48-3.81,15.58-3.04,5.1.77,10.28,3.68,14.22,7.97,4.37,4.77,6.42,10.55,5.62,15.85,0,.03-.01.07-.02.1l-18.67,110.21.48,21.01c2.95-2.17,5.96-4.23,9-6.16l.85-.54c2.23-1.42,5.01-3.19,8.78-5.02,1.68-.81,3.31-1.71,5.05-2.66,3.12-1.71,6.66-3.66,11.34-5.58,8.55-3.52,20.26-3.51,28.49,0,9.82,4.19,15.93,14.58,14.21,24.15-1.21,6.71-6.02,12.89-13.56,17.39-2.88,1.72-5.85,3.08-8.71,4.39-2.59,1.18-5.03,2.3-7.28,3.62-8.95,5.23-15.75,14.2-22.33,22.87l-.8,1.06c-4.03,5.3-7.75,11.09-11.35,16.69-9.7,15.08-19.73,30.68-37.46,40.29-14.84,8.04-30.29,9.88-44.32,9.88ZM92.45,116.56c-1.12,0-2.26.24-3.34.73-2.25,1.04-4.31,3.1-5.49,5.53-.64,1.31-1.56,3.84-.51,6.1.05.1.09.2.13.3l28.63,72.63c.27.68.41,1.41.41,2.15v35.85c0,19.13,1.94,30.83,13.45,49.61,10.14,16.55,28.62,26.63,50.71,27.64,15.39.7,31.79.19,47.38-8.25,15.09-8.17,23.88-21.85,33.19-36.33,3.72-5.79,7.57-11.77,11.88-17.44l.8-1.05c7.27-9.58,14.79-19.49,25.75-25.9,2.76-1.61,5.58-2.91,8.32-4.16,2.7-1.24,5.25-2.4,7.58-3.8,2.66-1.59,7.23-4.92,8.04-9.41.76-4.2-2.52-9.28-7.29-11.32-5.3-2.27-13.84-2.24-19.44.06-4.07,1.67-7.17,3.37-10.16,5.01-1.87,1.03-3.64,2-5.59,2.94-3.15,1.52-5.5,3.02-7.58,4.35l-.88.56c-5.61,3.55-11.1,7.6-16.32,12.02-.09.08-.19.16-.29.23-1.46,1.1-3.28,1.52-5.01,1.14-.2-.04-.42-.1-.67-.19-6.23-.76-17.07-.78-27.6,5.38-21.12,12.36-21.9,38.53-21.93,39.64-.07,3.23-2.72,5.82-5.97,5.73-3.23-.07-5.79-2.74-5.73-5.97.03-1.38,1.01-33.86,27.71-49.49,10.46-6.13,21.06-7.47,28.95-7.32l-.6-26.21c0-.37.02-.74.08-1.11l18.76-110.69c.25-1.75-.75-4.05-2.68-6.16-2.06-2.25-4.94-3.94-7.34-4.3-2.49-.38-5.59.26-8.09,1.67-2.3,1.29-3.77,3.03-4.03,4.76l-18.33,109.51c-.52,3.09-3.37,5.22-6.48,4.84l-2.75-.34c-2.94-.36-5.15-2.86-5.14-5.82l.23-117.66c0-3.97-5.42-8.18-10.55-8.18s-10.54,4.69-10.54,8.81l.84,114.8c.02,2.96-2.18,5.48-5.12,5.85l-1.81.23c-3.11.38-5.97-1.74-6.5-4.82l-18.33-107.41c-.65-3.68-7.28-6.88-12.44-5.96-2.46.43-5.19,2.04-7.11,4.2-1.78,2-2.63,4.14-2.32,5.89l19.76,109.88c.5,2.77-1.05,5.5-3.68,6.5l-7.61,2.9c-2.88,1.1-6.11-.22-7.39-3.02l-32.38-70.21c-1.42-3.09-4.46-4.92-7.59-4.92Z" style="fill: #231815;"/>
        </g>
      </g>
    </g>
  </g>
</svg>