<?xml version="1.0" encoding="UTF-8"?>
<svg id="Layer_2" xmlns="http://www.w3.org/2000/svg" viewBox="0 0 372.17 372.17">
  <g id="design">
    <g id="_x31_1">
      <g>
        <g>
          <circle cx="186.09" cy="186.09" r="178.59" transform="translate(-77.08 186.09) rotate(-45)" style="fill: #5cbee5;"/>
          <path d="M186.09,372.17C83.48,372.17,0,288.7,0,186.09S83.48,0,186.09,0s186.09,83.48,186.09,186.09-83.48,186.09-186.09,186.09ZM186.09,15C91.75,15,15,91.75,15,186.09s76.75,171.09,171.09,171.09,171.09-76.75,171.09-171.09S280.43,15,186.09,15Z" style="fill: #231815;"/>
        </g>
        <g>
          <path d="M282.2,132.91c-9.33-7.02-20.23-8.28-27.6-8.28-1.49.04-2.98.07-4.47.11v-3.64c0-11.28-9.13-20.41-20.4-20.41h-.07c-11.26,0-20.39,9.13-20.39,20.41v-1.66c0-11.28-9.15-20.41-20.41-20.41h-.05c-11.26,0-20.41,9.13-20.41,20.41v4.76c-.04-11.24-9.16-20.33-20.4-20.33h-.06c-11.27,0-20.41,9.14-20.41,20.41v4.89c0-10.37-8.41-18.78-18.78-18.78h-.05c-10.37,0-18.78,8.41-18.78,18.78v18.11l-.5-.44c-.81,30.47-3.31,98.74,4.18,113.81,10.03,20.17,31.74,39.41,83.3,38.99,9.9-.08,49.21.24,66.91-11.68,22.54-15.18,49.65-58.78,53.12-81.89,1.69-11.28,10.16-54.43-14.72-73.14ZM209.31,130.93s-.03.03-.04.04v-.04h.04Z" style="fill: #efc69a;"/>
          <g>
            <path d="M209.27,136.79c-3.23,0-5.85-2.62-5.85-5.85v-9.84c0-14.48,11.77-26.26,26.25-26.26s26.32,11.78,26.32,26.26v3.64c0,3.23-2.62,5.85-5.85,5.85s-5.85-2.62-5.85-5.85v-3.64c0-8.03-6.52-14.56-14.55-14.56s-14.62,6.53-14.62,14.56v9.84c0,3.23-2.62,5.85-5.85,5.85Z" style="fill: #231815;"/>
            <path d="M216.13,193.69c-1.38,0-2.77-.49-3.88-1.48-5.61-4.99-8.83-12.15-8.83-19.65v-12.54c0-3.23,2.62-5.85,5.85-5.85s5.85,2.62,5.85,5.85v12.54c0,4.16,1.79,8.14,4.9,10.91,2.41,2.15,2.63,5.84.49,8.26-1.16,1.3-2.76,1.96-4.37,1.96Z" style="fill: #231815;"/>
            <path d="M188.85,205.54c-14.54,0-26.32-11.78-26.32-26.26v-59.83c0-14.48,11.78-26.26,26.26-26.26s26.32,11.78,26.32,26.26v11.49c0,3.23-2.62,5.85-5.85,5.85s-5.85-2.62-5.85-5.85v-11.49c0-8.03-6.53-14.56-14.56-14.56s-14.62,6.53-14.62,14.56v59.83c0,8.03,6.53,14.56,14.56,14.56s14.62-6.53,14.62-14.56v-19.26c0-3.23,2.62-5.85,5.85-5.85s5.85,2.62,5.85,5.85v19.26c0,14.48-11.78,26.26-26.26,26.26Z" style="fill: #231815;"/>
            <path d="M147.98,205.33h-.06c-14.48,0-26.26-11.78-26.26-26.26v-54.8c0-14.48,11.78-26.26,26.26-26.26s26.32,11.78,26.32,26.26v54.8c0,14.48-11.78,26.26-26.26,26.26ZM147.98,109.72c-8.09,0-14.62,6.53-14.62,14.56v54.8c0,8.03,6.53,14.56,14.56,14.56h.06c8.03,0,14.56-6.53,14.56-14.56v-54.8c0-8.03-6.53-14.56-14.56-14.56Z" style="fill: #231815;"/>
            <path d="M108.74,198.82h-.05c-13.58,0-24.63-11.05-24.63-24.63v-45.02c0-13.58,11.05-24.63,24.63-24.63s24.68,11.05,24.68,24.63v45.02c0,13.58-11.05,24.63-24.63,24.63ZM108.74,116.24c-7.18,0-12.98,5.8-12.98,12.93v45.02c0,7.13,5.8,12.93,12.93,12.93h.05c7.13,0,12.93-5.8,12.93-12.93v-45.02c0-7.13-5.8-12.93-12.93-12.93Z" style="fill: #231815;"/>
            <path d="M175.27,305.48c-43.75,0-72.99-14.21-86.93-42.24-7.04-14.16-6.32-62-4.98-109.79l.19-6.78c.09-3.23,2.76-5.81,6-5.69,3.23.09,5.78,2.77,5.69,6l-.19,6.79c-.77,27.39-2.57,91.53,3.76,104.25,11.96,24.05,36.95,35.75,76.37,35.75.55,0,1.09,0,1.64,0h1.48c31.02-.19,51.95-3.78,62.21-10.69,21.88-14.74,47.47-57.07,50.6-77.91.1-.64.21-1.37.34-2.2,1.95-12.33,7.9-49.84-12.79-65.4-6.25-4.7-14.33-7.09-24.02-7.11l-32.39.77c-7.87.51-13.52,6.97-13.76,15.74-.06,2.53,1.43,5.5,4.09,8.14,3.67,3.63,8.84,5.99,12.9,5.83.18,0,.37,0,.55,0,2.31.13,5.82-.01,9.22-.16,3.69-.16,7.5-.32,10.41-.15,2.64.16,4.85,2.06,5.39,4.66s-.74,5.22-3.1,6.41c-22.6,11.37-33.11,25.27-37.96,34.92-5.31,10.58-8.03,22.55-7.89,34.61.04,3.23-2.55,5.88-5.78,5.92h-.07c-3.2,0-5.81-2.57-5.85-5.78-.17-13.92,2.99-27.75,9.13-39.99,4.05-8.08,11.44-18.68,24.74-28.76-6.86-.27-14.35-3.7-19.91-9.2-5.02-4.97-7.7-10.92-7.55-16.77.41-14.89,10.87-26.29,24.87-27.11.07,0,.14,0,.2,0l32.57-.78s.09,0,.14,0c12.31,0,22.78,3.19,31.11,9.45,26.32,19.79,19.54,62.53,17.32,76.58-.13.79-.24,1.5-.33,2.1-1.78,11.87-9.36,29.14-20.26,46.2-11.31,17.69-24.2,32.15-35.37,39.67-18.39,12.39-56.24,12.6-68.68,12.67h-1.45c-.56.01-1.11.02-1.66.02Z" style="fill: #231815;"/>
          </g>
        </g>
      </g>
    </g>
  </g>
</svg>