<?xml version="1.0" encoding="UTF-8"?>
<svg id="Layer_2" xmlns="http://www.w3.org/2000/svg" viewBox="0 0 372.17 372.17">
  <g id="design">
    <g id="_x31_1">
      <g>
        <g>
          <circle cx="186.09" cy="186.09" r="178.59" transform="translate(-77.08 186.09) rotate(-45)" style="fill: #f8b10d;"/>
          <path d="M0,186.09C0,83.48,83.48,0,186.09,0c102.61,0,186.09,83.48,186.09,186.09,0,102.61-83.48,186.09-186.09,186.09C83.48,372.17,0,288.7,0,186.09ZM15,186.09c0,94.34,76.75,171.09,171.09,171.09,94.34,0,171.09-76.75,171.09-171.09,0-94.34-76.75-171.09-171.09-171.09-94.34,0-171.09,76.75-171.09,171.09Z" style="fill: #231815;"/>
        </g>
        <g>
          <path d="M95.27,201.28l8.89,27.56c-3.28,24.13,4.66,52.97,13.92,65.96,22.69,30.81,62.39,42.5,104.68,23.94,19.83-8.7,36.05-25.26,41.86-42.19,1.38-4.05,17.83-41.41-10.93-76.73-.69-.85-1.4-1.67-2.12-2.48l9.58-118.64c.13-.91.16-1.81.12-2.71-.41-8.06-7.55-15.16-17.16-16.48-10.67-1.47-20.35,4.74-21.6,13.86l-11.12,99.51.03.02c-.56-.17-1.1-.33-1.64-.48l-23.62-100.03c-1.66-8.11-9.44-13.52-18.1-13.08-.99.05-1.98.18-2.98.39-9.78,2.01-16.21,10.95-14.36,19.98l20.26,98.58h0c-.55.82-1,1.67-1.34,2.53-.88,2.21-1.35,4.39-1.38,6.56,0,.2.01.41.02.61l-6.52-20.19c-3.08-9.53-13.29-14.76-22.84-11.68l-.47.15c-9.54,3.08-14.77,13.3-11.7,22.83l3.53,10.94c-3.08-9.54-13.3-14.77-22.84-11.69l-.47.15c-9.54,3.08-14.77,13.3-11.69,22.84Z" style="fill: #efc69a;"/>
          <g>
            <path d="M182.65,333.47c13.9,0,28.28-3.15,42.47-9.38,21.01-9.22,38.69-27.14,45.04-45.65.07-.19.17-.46.29-.8,11.02-29.36,6.68-58.31-12.22-81.53-19.3-23.72-48.65-30.52-60.46-32.34-16.8-3.02-29.84,5.38-33.59,14.84-1.14,2.86-1.74,5.77-1.79,8.62-.12,8.93,5.1,16.95,15.94,24.51.18.13.38.25.57.35l.65.35c2.37,1.28,5.01,2.82,7.8,4.45,2.86,1.67,5.92,3.46,9.05,5.17-3.93,4.05-7.8,10.12-10.64,19.23-6.99,22.5,6.7,40.3,8.29,42.25,2.03,2.51,5.72,2.89,8.23.86,2.51-2.03,2.9-5.72.86-8.23-.47-.58-11.48-14.43-6.2-31.41,2.92-9.38,7.55-15.86,13.03-18.26,2.12-.93,3.5-3.02,3.51-5.34,0-2.32-1.36-4.42-3.47-5.36-5.56-2.47-11.25-5.8-16.75-9.01-2.88-1.68-5.6-3.28-8.16-4.65l-.35-.19c-7.24-5.11-10.73-9.87-10.67-14.55.02-1.43.34-2.9.97-4.47,1.7-4.3,9.45-9.68,20.7-7.63.05,0,.11.02.16.03,10.42,1.6,36.46,7.55,53.24,28.17,16.17,19.86,19.84,44.73,10.34,70.03-.18.49-.32.87-.41,1.13-5.34,15.55-20.52,30.76-38.67,38.72-37.93,16.65-75.33,8.2-97.62-22.06-8.58-12.04-15.82-39.75-12.84-61.7.44-3.2-1.81-6.15-5.01-6.59-3.2-.43-6.15,1.81-6.59,5.01-3.52,25.85,4.84,55.97,14.96,70.15,12.29,16.68,28.99,27.99,48.35,32.77,6.8,1.68,13.82,2.51,20.97,2.51Z" style="fill: #231815;"/>
            <path d="M135.83,226.22l-14.65-45.38c-4.06-12.58,2.88-26.12,15.47-30.19l.47-.15c6.1-1.97,12.6-1.45,18.31,1.47,5.7,2.92,9.93,7.88,11.9,13.98h0l14.65,45.38c4.06,12.59-2.87,26.14-15.46,30.21l-.47.15c-2.44.79-4.92,1.16-7.35,1.16-10.13,0-19.57-6.48-22.85-16.63ZM150.08,162.39c-2.92-1.49-6.25-1.76-9.38-.75l-.47.15c-6.45,2.08-10.01,9.02-7.93,15.46l14.65,45.38c2.08,6.45,9.03,10.01,15.48,7.92l.47-.15c6.45-2.08,10.01-9.02,7.92-15.48l-14.65-45.38c-1.01-3.12-3.17-5.66-6.09-7.16Z" style="fill: #231815;"/>
            <path d="M108.13,252.63c-2.46-2.62-4.26-5.67-5.36-9.08l-13.06-40.47c-4.06-12.59,2.87-26.14,15.46-30.2l.47-.15c12.59-4.06,26.14,2.87,30.21,15.46h0l13.06,40.47c1.97,6.1,1.44,12.59-1.47,18.3-2.92,5.71-7.89,9.94-13.99,11.9l-.47.15c-2.4.77-4.87,1.15-7.32,1.15-6.52,0-12.93-2.66-17.52-7.53ZM124.71,191.78c-2.08-6.45-9.03-10-15.47-7.92l-.47.15c-6.45,2.08-10.01,9.02-7.92,15.48l13.06,40.47c.56,1.75,1.49,3.32,2.75,4.66,3.23,3.43,8.23,4.72,12.72,3.27l.47-.15c3.13-1.01,5.67-3.17,7.17-6.1,1.5-2.92,1.76-6.25.76-9.38l-13.06-40.47h0Z" style="fill: #231815;"/>
            <path d="M170.96,184.09c.39,0,.79-.04,1.18-.12,3.17-.65,5.2-3.74,4.55-6.91l-20.26-98.58c-1.19-5.85,3.21-11.72,9.81-13.07.73-.15,1.41-.24,2.1-.27,5.95-.29,11.02,3.24,12.07,8.41.01.06.02.12.04.17l23.62,100.04c.74,3.14,3.89,5.09,7.04,4.35,3.14-.74,5.09-3.89,4.35-7.04l-23.61-99.96c-2.26-10.83-12.38-18.24-24.1-17.66-1.28.06-2.59.23-3.88.5-12.91,2.65-21.39,14.71-18.91,26.88l20.26,98.58c.57,2.77,3.01,4.67,5.72,4.67Z" style="fill: #231815;"/>
            <path d="M251.58,203.19c3.02,0,5.58-2.32,5.82-5.38l9.56-118.48c.15-1.18.2-2.4.14-3.63-.56-11.05-9.9-20.3-22.21-21.99-7.18-.99-14.41.8-19.82,4.91-4.64,3.52-7.61,8.48-8.36,13.96,0,.05-.01.1-.02.14l-11.12,99.51c-.36,3.21,1.95,6.1,5.16,6.46,3.21.38,6.1-1.95,6.46-5.16l11.11-99.42c.44-3.02,2.32-5.02,3.83-6.16,2.96-2.25,7.03-3.2,11.16-2.64,6.64.91,11.85,5.63,12.12,10.98.03.56,0,1.08-.07,1.6-.02.11-.03.23-.04.35l-9.58,118.64c-.26,3.22,2.14,6.04,5.36,6.3.16.01.32.02.48.02Z" style="fill: #231815;"/>
          </g>
        </g>
      </g>
    </g>
  </g>
</svg>